<svg xmlns="http://www.w3.org/2000/svg" xmlns:xlink="http://www.w3.org/1999/xlink" zoomAndPan="magnify" preserveAspectRatio="xMidYMid meet" version="1.0" viewBox="83.44 122.63 234.89 89.9"><defs><g/></defs><g fill="#000000" fill-opacity="1"><g transform="translate(268.710779, 141.940511)"><g><path d="M 2.84375 -5.921875 L 3.8125 -5.203125 L 0.578125 -0.796875 L -5.546875 -5.296875 L -2.375 -9.609375 L -1.421875 -8.90625 L -3.6875 -5.8125 L -2.0625 -4.625 L 0.046875 -7.515625 L 1.015625 -6.796875 L -1.09375 -3.90625 L 0.515625 -2.734375 Z M 2.84375 -5.921875 "/></g></g></g><g fill="#000000" fill-opacity="1"><g transform="translate(274.864288, 134.845959)"><g><path d="M 0.90625 -3.859375 L -1.203125 -2.4375 L -1.671875 -3.15625 L 0.4375 -4.578125 Z M 0.90625 -3.859375 "/></g></g></g><g fill="#000000" fill-opacity="1"><g transform="translate(279.906479, 131.676113)"><g><path d="M 5.953125 -2.8125 L 6.265625 -1.578125 L 0.953125 -0.234375 L -0.890625 -7.59375 L 0.578125 -7.96875 L 2.109375 -1.84375 Z M 5.953125 -2.8125 "/></g></g></g><g fill="#000000" fill-opacity="1"><g transform="translate(288.856394, 129.943892)"><g><path d="M 6.5625 -0.109375 L 6.359375 1.078125 L 0.96875 0.171875 L 2.234375 -7.3125 L 7.515625 -6.421875 L 7.328125 -5.25 L 3.546875 -5.890625 L 3.203125 -3.921875 L 6.734375 -3.328125 L 6.53125 -2.140625 L 3 -2.734375 L 2.671875 -0.765625 Z M 6.5625 -0.109375 "/></g></g></g><g fill="#000000" fill-opacity="1"><g transform="translate(297.85404, 131.935629)"><g><path d="M 5.484375 0.96875 L 3.390625 -0.453125 L 1.46875 1 L 0.140625 0.09375 L 6.671875 -4.640625 L 8.25 -3.578125 L 6.1875 4.21875 L 4.828125 3.28125 Z M 6.71875 -3.046875 L 4.375 -1.234375 L 5.84375 -0.234375 Z M 6.71875 -3.046875 "/></g></g></g><g fill="#000000" fill-opacity="1"><g transform="translate(305.660893, 137.924196)"><g><path d="M 4.953125 4.609375 C 4.222656 5.148438 3.765625 5.628906 3.578125 6.046875 L 2.734375 4.625 C 3.078125 4.195312 3.5 3.800781 4 3.4375 C 4.6875 2.914062 4.90625 2.394531 4.65625 1.875 C 4.59375 1.738281 4.492188 1.5625 4.359375 1.34375 L 3.921875 0.59375 L 1.28125 2.15625 L 0.5 0.84375 L 7.03125 -3.03125 L 8.4375 -0.65625 C 8.65625 -0.289062 8.828125 0.0351562 8.953125 0.328125 C 9.203125 0.890625 9.273438 1.40625 9.171875 1.875 C 9.078125 2.351562 8.765625 2.753906 8.234375 3.078125 C 7.828125 3.316406 7.421875 3.398438 7.015625 3.328125 C 6.609375 3.265625 6.234375 3.066406 5.890625 2.734375 C 6.015625 3.421875 5.703125 4.046875 4.953125 4.609375 Z M 4.890625 0.015625 L 5.421875 0.90625 C 5.578125 1.164062 5.679688 1.34375 5.734375 1.4375 C 6.160156 2.03125 6.660156 2.15625 7.234375 1.8125 C 7.523438 1.632812 7.695312 1.429688 7.75 1.203125 C 7.800781 0.984375 7.769531 0.71875 7.65625 0.40625 C 7.582031 0.238281 7.484375 0.0507812 7.359375 -0.15625 L 6.796875 -1.109375 Z M 4.890625 0.015625 "/></g></g></g><g fill="#000000" fill-opacity="1"><g transform="translate(310.181879, 146.371366)"><g><path d="M 0.59375 7.609375 L 0.4375 5.546875 L 5.9375 1.984375 C 5.257812 2.078125 4.488281 2.160156 3.625 2.234375 L 0.203125 2.5 L 0.078125 0.984375 L 7.640625 0.390625 L 7.796875 2.375 L 2.203125 6.03125 C 2.867188 5.9375 3.660156 5.851562 4.578125 5.78125 L 8.046875 5.515625 L 8.15625 7.015625 Z M 0.59375 7.609375 "/></g></g></g><g fill="#000000" fill-opacity="1"><g transform="translate(310.072809, 157.234183)"><g><path d="M -0.734375 2.390625 L -0.296875 0.9375 L 6.953125 3.171875 L 6.515625 4.625 Z M -0.734375 2.390625 "/></g></g></g><g fill="#000000" fill-opacity="1"><g transform="translate(308.334861, 162.827811)"><g><path d="M -4.78125 5.953125 L -3.484375 4.34375 L 2.96875 5.515625 C 2.40625 5.117188 1.789062 4.648438 1.125 4.109375 L -1.5625 1.953125 L -0.609375 0.765625 L 5.3125 5.515625 L 4.046875 7.078125 L -2.53125 5.90625 C -1.976562 6.300781 -1.34375 6.785156 -0.625 7.359375 L 2.09375 9.53125 L 1.140625 10.703125 Z M -4.78125 5.953125 "/></g></g></g><g fill="#000000" fill-opacity="1"><g transform="translate(301.210858, 170.773219)"><g><path d="M -2.484375 5.34375 L -5.28125 6.59375 L -6.859375 3.0625 L -5.75 2.5625 L -5.15625 3.640625 L -5.15625 2.8125 C -4.9375 2.257812 -4.457031 1.816406 -3.71875 1.484375 C -2.757812 1.054688 -1.851562 1.035156 -1 1.421875 C -0.144531 1.816406 0.523438 2.5625 1.015625 3.65625 C 1.515625 4.769531 1.585938 5.800781 1.234375 6.75 C 0.890625 7.695312 0.222656 8.390625 -0.765625 8.828125 C -1.671875 9.234375 -2.476562 9.328125 -3.1875 9.109375 C -3.894531 8.890625 -4.441406 8.441406 -4.828125 7.765625 L -4.890625 7.671875 L -3.5 7.0625 L -3.421875 7.140625 C -2.847656 7.960938 -2.113281 8.175781 -1.21875 7.78125 C -0.644531 7.519531 -0.28125 7.082031 -0.125 6.46875 C 0.0195312 5.863281 -0.078125 5.175781 -0.421875 4.40625 C -0.796875 3.5625 -1.253906 2.988281 -1.796875 2.6875 C -2.347656 2.394531 -2.898438 2.375 -3.453125 2.625 C -3.898438 2.832031 -4.210938 3.132812 -4.390625 3.53125 C -4.578125 3.9375 -4.59375 4.398438 -4.4375 4.921875 L -2.96875 4.265625 Z M -2.484375 5.34375 "/></g></g></g><g fill="#000000" fill-opacity="1"><g transform="translate(291.089344, 174.215753)"><g/></g></g><g fill="#000000" fill-opacity="1"><g transform="translate(81.236538, 211.87645)"><g><path d="M 2.96875 -10.890625 C 2.96875 -13.160156 2.820312 -15.117188 2.53125 -16.765625 C 2.238281 -18.421875 2.144531 -19.722656 2.25 -20.671875 C 2.363281 -21.628906 3.082031 -22.109375 4.40625 -22.109375 C 5.28125 -22.109375 6.15625 -21.578125 7.03125 -20.515625 C 7.914062 -19.453125 8.925781 -18.128906 10.0625 -16.546875 C 11.195312 -14.972656 12.550781 -13.394531 14.125 -11.8125 C 15.707031 -10.238281 17.597656 -8.921875 19.796875 -7.859375 C 21.992188 -6.796875 24.597656 -6.265625 27.609375 -6.265625 C 29.367188 -6.265625 30.816406 -6.578125 31.953125 -7.203125 C 33.085938 -7.828125 33.65625 -8.945312 33.65625 -10.5625 C 33.65625 -12.03125 32.90625 -13.273438 31.40625 -14.296875 C 29.90625 -15.328125 27.976562 -16.335938 25.625 -17.328125 C 23.28125 -18.316406 20.785156 -19.378906 18.140625 -20.515625 C 15.503906 -21.648438 13.015625 -23.023438 10.671875 -24.640625 C 8.328125 -26.253906 6.421875 -28.25 4.953125 -30.625 C 3.484375 -33.007812 2.75 -35.890625 2.75 -39.265625 C 2.75 -43.960938 4.472656 -47.867188 7.921875 -50.984375 C 11.367188 -54.097656 16.5 -55.65625 23.3125 -55.65625 C 25.445312 -55.65625 27.191406 -55.546875 28.546875 -55.328125 C 29.898438 -55.109375 31.382812 -55 33 -55 C 34.25 -55 35.367188 -55.109375 36.359375 -55.328125 C 37.347656 -55.546875 38.207031 -55.65625 38.9375 -55.65625 C 39.519531 -55.65625 40.015625 -55.546875 40.421875 -55.328125 C 40.828125 -55.109375 41.175781 -54.671875 41.46875 -54.015625 C 43.15625 -50.347656 44.492188 -47.191406 45.484375 -44.546875 C 46.472656 -41.910156 46.859375 -39.894531 46.640625 -38.5 C 46.421875 -37.101562 45.210938 -36.40625 43.015625 -36.40625 C 41.765625 -36.40625 40.585938 -37.046875 39.484375 -38.328125 C 38.390625 -39.617188 37.273438 -41.125 36.140625 -42.84375 C 35.003906 -44.570312 33.664062 -46.078125 32.125 -47.359375 C 30.582031 -48.640625 28.75 -49.28125 26.625 -49.28125 C 24.570312 -49.28125 22.992188 -48.726562 21.890625 -47.625 C 20.785156 -46.53125 20.234375 -45.066406 20.234375 -43.234375 C 20.234375 -41.546875 20.945312 -40.132812 22.375 -39 C 23.8125 -37.863281 25.628906 -36.835938 27.828125 -35.921875 C 30.023438 -35.003906 32.390625 -34.03125 34.921875 -33 C 37.453125 -31.96875 39.816406 -30.71875 42.015625 -29.25 C 44.210938 -27.789062 46.023438 -25.957031 47.453125 -23.75 C 48.890625 -21.550781 49.609375 -18.769531 49.609375 -15.40625 C 49.609375 -11.882812 48.507812 -8.929688 46.3125 -6.546875 C 44.113281 -4.160156 41.304688 -2.363281 37.890625 -1.15625 C 34.484375 0.0507812 30.875 0.65625 27.0625 0.65625 C 24.269531 0.65625 21.898438 0.546875 19.953125 0.328125 C 18.015625 0.109375 15.65625 0 12.875 0 C 11.039062 0 9.679688 0.109375 8.796875 0.328125 C 7.921875 0.546875 6.710938 0.65625 5.171875 0.65625 C 3.703125 0.65625 2.835938 0.125 2.578125 -0.9375 C 2.328125 -2 2.328125 -3.410156 2.578125 -5.171875 C 2.835938 -6.929688 2.96875 -8.835938 2.96875 -10.890625 Z M 2.96875 -10.890625 "/></g></g></g><g fill="#000000" fill-opacity="1"><g transform="translate(133.922838, 211.87645)"><g><path d="M 13.640625 0 C 12.535156 0 11.234375 0.109375 9.734375 0.328125 C 8.234375 0.546875 6.820312 0.65625 5.5 0.65625 C 4.25 0.65625 3.203125 0.472656 2.359375 0.109375 C 1.515625 -0.253906 1.09375 -0.988281 1.09375 -2.09375 C 1.09375 -2.894531 1.273438 -3.5 1.640625 -3.90625 C 2.015625 -4.3125 2.457031 -4.820312 2.96875 -5.4375 C 3.476562 -6.0625 3.914062 -7.035156 4.28125 -8.359375 C 4.65625 -9.679688 4.84375 -11.625 4.84375 -14.1875 C 4.84375 -16.238281 4.84375 -18.640625 4.84375 -21.390625 C 4.84375 -24.140625 4.859375 -26.941406 4.890625 -29.796875 C 4.929688 -32.660156 4.953125 -35.300781 4.953125 -37.71875 C 4.953125 -40.144531 4.953125 -42.109375 4.953125 -43.609375 C 4.953125 -45.117188 4.953125 -45.875 4.953125 -45.875 C 4.953125 -47.851562 4.65625 -49.207031 4.0625 -49.9375 C 3.476562 -50.675781 2.894531 -51.265625 2.3125 -51.703125 C 1.726562 -52.140625 1.4375 -52.835938 1.4375 -53.796875 C 1.4375 -54.890625 1.800781 -55.640625 2.53125 -56.046875 C 3.257812 -56.453125 4.300781 -56.800781 5.65625 -57.09375 C 7.019531 -57.382812 8.65625 -57.859375 10.5625 -58.515625 C 12.90625 -59.398438 14.515625 -60.191406 15.390625 -60.890625 C 16.273438 -61.585938 16.9375 -62.15625 17.375 -62.59375 C 17.820312 -63.03125 18.519531 -63.25 19.46875 -63.25 C 20.71875 -63.25 21.578125 -62.660156 22.046875 -61.484375 C 22.523438 -60.316406 22.765625 -58.925781 22.765625 -57.3125 L 22.765625 -36.515625 C 22.984375 -36.003906 23.457031 -36.132812 24.1875 -36.90625 C 24.925781 -37.675781 25.957031 -38.664062 27.28125 -39.875 C 28.601562 -41.082031 30.21875 -42.179688 32.125 -43.171875 C 34.03125 -44.160156 36.226562 -44.65625 38.71875 -44.65625 C 42.164062 -44.65625 44.769531 -43.921875 46.53125 -42.453125 C 48.289062 -40.992188 49.484375 -39.160156 50.109375 -36.953125 C 50.734375 -34.753906 51.046875 -32.519531 51.046875 -30.25 L 51.046875 -14.1875 C 51.046875 -11.625 51.226562 -9.679688 51.59375 -8.359375 C 51.957031 -7.035156 52.394531 -6.0625 52.90625 -5.4375 C 53.425781 -4.820312 53.867188 -4.3125 54.234375 -3.90625 C 54.597656 -3.5 54.78125 -2.894531 54.78125 -2.09375 C 54.78125 -0.988281 54.46875 -0.253906 53.84375 0.109375 C 53.21875 0.472656 52.394531 0.65625 51.375 0.65625 C 50.34375 0.65625 49.148438 0.546875 47.796875 0.328125 C 46.441406 0.109375 45.140625 0 43.890625 0 C 42.710938 0 41.703125 0.0507812 40.859375 0.15625 C 40.015625 0.269531 39.117188 0.398438 38.171875 0.546875 C 36.703125 0.691406 35.507812 0.363281 34.59375 -0.4375 C 33.675781 -1.25 33.21875 -2.382812 33.21875 -3.84375 L 33.21875 -21.890625 C 33.21875 -25.410156 32.847656 -28.085938 32.109375 -29.921875 C 31.378906 -31.753906 30.0625 -32.671875 28.15625 -32.671875 C 26.757812 -32.671875 25.53125 -32.101562 24.46875 -30.96875 C 23.40625 -29.832031 22.835938 -27.539062 22.765625 -24.09375 L 22.546875 -14.1875 C 22.472656 -11.550781 22.617188 -9.550781 22.984375 -8.1875 C 23.359375 -6.832031 23.800781 -5.878906 24.3125 -5.328125 C 24.820312 -4.785156 25.28125 -4.3125 25.6875 -3.90625 C 26.09375 -3.5 26.296875 -2.894531 26.296875 -2.09375 C 26.296875 -0.988281 25.875 -0.253906 25.03125 0.109375 C 24.1875 0.472656 23.140625 0.65625 21.890625 0.65625 C 20.492188 0.65625 19.046875 0.546875 17.546875 0.328125 C 16.046875 0.109375 14.742188 0 13.640625 0 Z M 13.640625 0 "/></g></g></g><g fill="#000000" fill-opacity="1"><g transform="translate(190.678852, 211.87645)"><g><path d="M 13.96875 0 C 12.863281 0 11.5625 0.109375 10.0625 0.328125 C 8.5625 0.546875 7.148438 0.65625 5.828125 0.65625 C 4.578125 0.65625 3.53125 0.472656 2.6875 0.109375 C 1.851562 -0.253906 1.4375 -0.988281 1.4375 -2.09375 C 1.4375 -2.894531 1.617188 -3.5 1.984375 -3.90625 C 2.347656 -4.3125 2.785156 -4.820312 3.296875 -5.4375 C 3.804688 -6.0625 4.242188 -7.035156 4.609375 -8.359375 C 4.984375 -9.679688 5.171875 -11.625 5.171875 -14.1875 C 5.171875 -17.5625 5.1875 -20 5.21875 -21.5 C 5.257812 -23.007812 5.28125 -24.109375 5.28125 -24.796875 C 5.28125 -25.492188 5.28125 -26.285156 5.28125 -27.171875 C 5.28125 -29.148438 4.96875 -30.523438 4.34375 -31.296875 C 3.71875 -32.066406 3.09375 -32.671875 2.46875 -33.109375 C 1.851562 -33.546875 1.546875 -34.242188 1.546875 -35.203125 C 1.546875 -36.296875 1.910156 -37.046875 2.640625 -37.453125 C 3.367188 -37.859375 4.410156 -38.207031 5.765625 -38.5 C 7.128906 -38.789062 8.765625 -39.269531 10.671875 -39.9375 C 13.015625 -40.8125 14.625 -41.597656 15.5 -42.296875 C 16.382812 -42.992188 17.046875 -43.5625 17.484375 -44 C 17.929688 -44.4375 18.628906 -44.65625 19.578125 -44.65625 C 20.898438 -44.65625 21.78125 -44.066406 22.21875 -42.890625 C 22.65625 -41.722656 22.875 -40.332031 22.875 -38.71875 L 22.875 -14.1875 C 22.875 -11.625 23.054688 -9.679688 23.421875 -8.359375 C 23.796875 -7.035156 24.238281 -6.0625 24.75 -5.4375 C 25.257812 -4.820312 25.695312 -4.3125 26.0625 -3.90625 C 26.4375 -3.5 26.625 -2.894531 26.625 -2.09375 C 26.625 -0.988281 26.203125 -0.253906 25.359375 0.109375 C 24.515625 0.472656 23.46875 0.65625 22.21875 0.65625 C 20.820312 0.65625 19.375 0.546875 17.875 0.328125 C 16.375 0.109375 15.070312 0 13.96875 0 Z M 1.4375 -47.734375 C 0.695312 -49.941406 1.078125 -52.328125 2.578125 -54.890625 C 4.085938 -57.453125 6.378906 -59.539062 9.453125 -61.15625 C 12.023438 -62.476562 14.375 -63.140625 16.5 -63.140625 C 19.726562 -63.140625 21.816406 -61.820312 22.765625 -59.1875 C 23.578125 -56.90625 23.226562 -54.519531 21.71875 -52.03125 C 20.21875 -49.539062 17.925781 -47.453125 14.84375 -45.765625 C 12.207031 -44.441406 9.828125 -43.78125 7.703125 -43.78125 C 4.546875 -43.78125 2.457031 -45.097656 1.4375 -47.734375 Z M 1.4375 -47.734375 "/></g></g></g><g fill="#000000" fill-opacity="1"><g transform="translate(219.16688, 211.87645)"><g><path d="M 0.546875 -35.203125 C 0.546875 -37.109375 1.460938 -38.0625 3.296875 -38.0625 L 6.484375 -38.0625 L 6.59375 -42.6875 C 6.59375 -46.644531 7.488281 -49.847656 9.28125 -52.296875 C 11.082031 -54.753906 13.359375 -56.550781 16.109375 -57.6875 C 18.859375 -58.832031 21.59375 -59.40625 24.3125 -59.40625 C 28.488281 -59.40625 31.507812 -59.019531 33.375 -58.25 C 35.25 -57.476562 36.332031 -56.359375 36.625 -54.890625 C 36.914062 -53.421875 36.695312 -51.550781 35.96875 -49.28125 C 35.238281 -47.082031 34.488281 -45.632812 33.71875 -44.9375 C 32.945312 -44.238281 32.046875 -43.890625 31.015625 -43.890625 C 30.066406 -43.890625 29.316406 -44.382812 28.765625 -45.375 C 28.210938 -46.363281 27.71875 -47.515625 27.28125 -48.828125 C 26.84375 -50.148438 26.289062 -51.304688 25.625 -52.296875 C 24.96875 -53.296875 24.015625 -53.796875 22.765625 -53.796875 C 21.597656 -53.796875 20.570312 -53.390625 19.6875 -52.578125 C 18.8125 -51.773438 18.375 -50.601562 18.375 -49.0625 C 18.375 -47.59375 18.757812 -46.363281 19.53125 -45.375 C 20.300781 -44.382812 21.144531 -43.359375 22.0625 -42.296875 C 22.976562 -41.234375 23.617188 -39.820312 23.984375 -38.0625 L 27.609375 -38.0625 C 29.441406 -38.0625 30.359375 -37.109375 30.359375 -35.203125 C 30.359375 -33.367188 29.441406 -32.453125 27.609375 -32.453125 L 24.203125 -32.453125 L 24.203125 -14.40625 C 24.203125 -11.769531 24.382812 -9.769531 24.75 -8.40625 C 25.113281 -7.050781 25.550781 -6.0625 26.0625 -5.4375 C 26.582031 -4.820312 27.023438 -4.3125 27.390625 -3.90625 C 27.753906 -3.5 27.9375 -2.894531 27.9375 -2.09375 C 27.9375 -0.988281 27.515625 -0.253906 26.671875 0.109375 C 25.828125 0.472656 24.785156 0.65625 23.546875 0.65625 C 22.148438 0.65625 20.695312 0.546875 19.1875 0.328125 C 17.6875 0.109375 16.390625 0 15.296875 0 C 14.191406 0 12.882812 0.109375 11.375 0.328125 C 9.875 0.546875 8.46875 0.65625 7.15625 0.65625 C 5.90625 0.65625 4.859375 0.472656 4.015625 0.109375 C 3.171875 -0.253906 2.75 -0.988281 2.75 -2.09375 C 2.75 -2.894531 2.929688 -3.5 3.296875 -3.90625 C 3.660156 -4.3125 4.097656 -4.820312 4.609375 -5.4375 C 5.128906 -6.0625 5.570312 -7.035156 5.9375 -8.359375 C 6.300781 -9.679688 6.484375 -11.625 6.484375 -14.1875 L 6.484375 -32.453125 L 3.296875 -32.453125 C 1.460938 -32.453125 0.546875 -33.367188 0.546875 -35.203125 Z M 0.546875 -35.203125 "/></g></g></g><g fill="#000000" fill-opacity="1"><g transform="translate(257.334217, 211.87645)"><g><path d="M 1.09375 -41.359375 C 1.09375 -42.460938 1.457031 -43.195312 2.1875 -43.5625 C 2.925781 -43.925781 3.957031 -44.289062 5.28125 -44.65625 C 6.601562 -45.019531 8.144531 -45.753906 9.90625 -46.859375 C 12.25 -48.328125 13.929688 -49.738281 14.953125 -51.09375 C 15.984375 -52.445312 16.789062 -53.546875 17.375 -54.390625 C 17.96875 -55.234375 18.738281 -55.65625 19.6875 -55.65625 C 21.007812 -55.65625 21.796875 -54.992188 22.046875 -53.671875 C 22.304688 -52.359375 22.4375 -50.894531 22.4375 -49.28125 L 22.4375 -45.203125 C 22.4375 -44.398438 22.84375 -44 23.65625 -44 L 25.40625 -44 C 27.238281 -44 28.15625 -43.082031 28.15625 -41.25 C 28.15625 -39.34375 27.238281 -38.390625 25.40625 -38.390625 L 23.65625 -38.390625 C 22.84375 -38.390625 22.4375 -37.988281 22.4375 -37.1875 L 22.4375 -24.3125 C 22.4375 -19.613281 22.488281 -16.203125 22.59375 -14.078125 C 22.707031 -11.953125 23.28125 -10.375 24.3125 -9.34375 C 24.96875 -8.757812 25.515625 -8.394531 25.953125 -8.25 C 26.398438 -8.101562 26.734375 -7.921875 26.953125 -7.703125 C 27.171875 -7.484375 27.28125 -6.96875 27.28125 -6.15625 C 27.28125 -4.757812 26.488281 -3.273438 24.90625 -1.703125 C 23.332031 -0.128906 20.566406 0.65625 16.609375 0.65625 C 11.992188 0.65625 8.859375 -1.007812 7.203125 -4.34375 C 5.554688 -7.675781 4.734375 -12.019531 4.734375 -17.375 L 4.84375 -33.328125 C 4.84375 -35.304688 4.53125 -36.679688 3.90625 -37.453125 C 3.28125 -38.222656 2.65625 -38.828125 2.03125 -39.265625 C 1.40625 -39.710938 1.09375 -40.410156 1.09375 -41.359375 Z M 1.09375 -41.359375 "/></g></g></g></svg>